# xmcd
#
# Track frame offsets:
#	150
#	26236
#	49039
#	70503
#	93666
#	114998
#	132798
#	152872
#	171465
#
# Disc length: 2552 seconds
#
# Revision: 0
# Processed by: cddbd v1.5.2PL0 Copyright (c) Steve Scherf et al.
# Submitted via: EasyCDDAExtractor 16.0.6.1
#
DISCID=7609f609
DTITLE=Χαΐνηδες
DYEAR=1991
DGENRE=Κρητική
TTITLE0=Της γιαγιάς τα παραμύθια
TTITLE1=Το καπηλειό
TTITLE2=Ο ταμπουράς του Σταύρου
TTITLE3=Καντάδα
TTITLE4=Ο παλιός σκοπός
TTITLE5=Ο χαΐνης
TTITLE6=Αθιβολές
TTITLE7=Ο θάνατος του παλληκαριού
TTITLE8=Παραλήρημα
EXTD=
EXTT0=
EXTT1=
EXTT2=
EXTT3=
EXTT4=
EXTT5=
EXTT6=
EXTT7=
EXTT8=
PLAYORDER=
